PathFileType	4	(X/Y/Z)	s07c0301.trc
DataRate	CameraRate	NumFrames	NumMarkers	Units	OrigDataRate	OrigDataStartFrame	OrigNumFrames
200	200	4	48	mm	200	1750	2000
Frame#	Time	racr			lacr			c7			jug			rlel			rdr			llel			ldr			s2			lic			ric			lasi			rasi			rpsi			lpsi			rgt			lgt			rth1			rth2			rth3			rth4			rlfc			rmfc			rsh1			rsh2			rsh3			rsh4			rlmal			rcal			rtoe			rmt5			lth1			lth2			lth4			lth3			llfc			lmfc			lsh1			lsh2			lsh3			lsh4			llmal			lcal			ltoe			lmt5			SBIKE			LBIKE			RBIKE			
		X1	Y1	Z1	X2	Y2	Z2	X3	Y3	Z3	X4	Y4	Z4	X5	Y5	Z5	X6	Y6	Z6	X7	Y7	Z7	X8	Y8	Z8	X9	Y9	Z9	X10	Y10	Z10	X11	Y11	Z11	X12	Y12	Z12	X13	Y13	Z13	X14	Y14	Z14	X15	Y15	Z15	X16	Y16	Z16	X17	Y17	Z17	X18	Y18	Z18	X19	Y19	Z19	X20	Y20	Z20	X21	Y21	Z21	X22	Y22	Z22	X23	Y23	Z23	X24	Y24	Z24	X25	Y25	Z25	X26	Y26	Z26	X27	Y27	Z27	X28	Y28	Z28	X29	Y29	Z29	X30	Y30	Z30	X31	Y31	Z31	X32	Y32	Z32	X33	Y33	Z33	X34	Y34	Z34	X35	Y35	Z35	X36	Y36	Z36	X37	Y37	Z37	X38	Y38	Z38	X39	Y39	Z39	X40	Y40	Z40	X41	Y41	Z41	X42	Y42	Z42	X43	Y43	Z43	X44	Y44	Z44	X45	Y45	Z45	X46	Y46	Z46	X47	Y47	Z47	X48	Y48	Z48	
1750	8.7500	595.434063	1510.502415	-136.981152	622.059363	1477.717766	-456.289239	599.400485	1556.971870	-307.124968	563.977274	1411.556649	-293.518860	608.897946	1171.106168	-41.419028	730.569369	897.783366	-83.260953	542.929537	1135.703827	-515.383067	724.345796	917.735166	-422.062951	47.409171	1263.692972	-287.005117	210.713274	1277.629999	-439.229637	219.067242	1322.906510	-146.990955	236.194049	1201.668012	-403.457795	237.041190	1266.449202	-150.617585	75.215679	1308.642225	-245.812439	87.997613	1298.071468	-352.202667	156.511030	1217.040411	-84.818347	124.250085	1130.079885	-433.965074	264.020460	1133.305560	-46.093783	339.674455	1091.778744	-30.162556	384.347304	1023.910811	-1.096274	364.842535	1111.115993	-49.388978	458.925741	904.165593	8.599373	472.469307	878.597412	-95.097312	333.446242	835.660711	6.051878	270.995594	779.814075	-24.565015	187.180468	761.551388	-38.428086	289.383622	763.838542	-57.602664	65.409672	695.281301	-67.118912	-3.999537	709.219531	-113.428655	206.146570	510.289187	-82.805712	107.683519	528.853779	-37.840717	138.293804	1015.709664	-447.751655	173.521511	934.558276	-451.370726	209.691187	940.226345	-445.510360	164.187419	846.650758	-441.040577	186.248882	682.515652	-412.114904	185.382164	666.750251	-323.335192	134.939763	544.096010	-429.371946	137.064590	460.338465	-409.611552	93.306161	380.816910	-409.776078	143.930659	463.648514	-367.564819	51.585402	253.892965	-396.874160	-18.693684	226.529431	-363.503192	263.993339	157.640342	-364.173601	182.250856	144.864812	-428.692210	-263.624383	973.254880	-238.932496	-83.148507	79.145644	-437.927863	-83.318178	79.178055	-40.265251	
1751	8.7550	594.918391	1510.288472	-137.278227	621.305111	1477.318149	-456.763071	598.929530	1556.664903	-307.447941	563.204566	1411.348898	-293.945282	608.596478	1171.027670	-41.558084	730.552880	897.803197	-83.236383	542.465391	1135.305151	-515.457965	724.320895	917.640616	-422.051051	46.758619	1263.587260	-287.168555	210.060301	1277.710892	-439.422500	218.436304	1322.852987	-147.235783	235.601017	1201.726327	-403.486505	236.259883	1266.458059	-150.698591	74.467691	1308.596231	-245.960659	87.271614	1298.027775	-352.352793	155.825665	1217.148013	-84.925516	123.683082	1130.089041	-434.053085	263.533562	1133.726254	-46.278399	339.363881	1092.539949	-30.391560	384.324639	1024.910254	-1.348670	364.473073	1112.098871	-49.518177	459.522499	905.422989	8.153886	473.161205	879.979882	-95.466014	334.429115	836.362218	5.646040	272.149623	780.228564	-25.087213	188.339773	761.840311	-38.920445	290.423900	764.434230	-58.308801	66.693277	695.011143	-67.856628	-2.891538	708.513709	-113.882697	209.045738	511.311291	-84.088033	110.560406	528.926198	-38.850181	137.759816	1015.733503	-447.930442	173.071308	934.564243	-451.636438	209.234169	940.260305	-445.967060	163.698753	846.706861	-441.297242	186.072971	682.550324	-412.334686	185.331661	666.774156	-323.557543	134.664646	544.158549	-429.525213	136.729524	460.388922	-409.711033	92.879846	380.920650	-409.872487	143.590433	463.667274	-367.663172	51.019483	254.026067	-396.863092	-19.264684	226.816997	-363.432521	263.316357	157.652683	-364.222756	181.834579	144.880370	-428.699171	-263.613698	973.254854	-238.941391	-83.169926	79.184967	-437.905752	-83.256900	79.022847	-40.323689	
1752	8.7600	594.371047	1510.095878	-137.589402	620.487148	1476.955198	-457.081244	598.426854	1556.335156	-307.841551	562.504572	1411.153506	-294.179964	608.301626	1170.958846	-41.706641	730.488902	897.827429	-83.280294	541.915464	1134.846430	-515.518863	724.263690	917.531212	-422.028876	46.066469	1263.565682	-287.266297	209.386444	1277.798052	-439.460011	217.564607	1323.159387	-147.298292	234.972355	1201.802376	-403.549459	235.483715	1266.541308	-150.824773	73.748382	1308.565362	-246.110092	86.641094	1298.054662	-352.450188	155.115071	1217.313487	-85.019099	123.153572	1130.202215	-434.189960	263.020612	1134.207443	-46.468316	339.037800	1093.340807	-30.572394	384.306617	1025.853300	-1.582275	364.069317	1113.012109	-49.703729	460.127795	906.495333	7.765642	473.882502	881.516109	-96.053917	335.395455	836.917459	5.218728	273.351931	780.632569	-25.633047	189.593912	761.949675	-39.317882	291.649104	765.039160	-58.993305	68.141029	694.657814	-68.466431	-1.895905	707.645478	-114.537515	212.091048	512.293289	-85.591078	113.540455	528.944032	-40.044166	137.200351	1015.831880	-448.107750	172.424530	934.641467	-452.006039	208.653616	940.347609	-446.499258	163.204944	846.766958	-441.519763	185.863818	682.613895	-412.551408	185.242091	666.834886	-323.783954	134.364925	544.217633	-429.663347	136.430861	460.442414	-409.802827	92.539935	381.061122	-409.963755	143.328098	463.699525	-367.846244	50.615077	254.172752	-396.883308	-19.643516	226.979767	-363.399055	262.896232	157.696729	-364.281513	181.541377	144.893967	-428.706853	-263.606655	973.256254	-238.941829	-83.153508	79.160083	-437.913298	-83.255371	79.031489	-40.332601	
1753	8.7650	593.853033	1509.861834	-137.920070	619.794312	1476.610550	-457.475762	597.957563	1556.027989	-308.159972	561.711776	1410.947705	-294.581555	608.023105	1170.891121	-41.867705	730.542901	897.825961	-83.249156	541.426931	1134.411242	-515.544767	724.188429	917.426741	-421.995271	45.420194	1263.587079	-287.401037	208.689061	1277.907454	-439.595686	216.885081	1323.327353	-147.424459	234.334717	1201.962964	-403.718874	229.770904	1265.421952	-157.866924	73.080368	1308.624659	-246.251532	85.908927	1298.127505	-352.554273	154.452587	1217.500544	-85.140261	122.510536	1130.275743	-434.311464	262.615130	1134.737423	-46.699811	338.900946	1094.142478	-30.392644	384.288062	1026.799875	-1.867230	363.696052	1113.941444	-49.853286	460.621799	907.679118	7.407918	474.511766	883.043638	-96.537985	336.356682	837.409636	4.733354	274.512990	780.999765	-26.166822	190.792066	761.982483	-39.786346	292.730053	765.602154	-59.728708	69.586390	694.114095	-69.147591	-0.858202	706.606686	-115.075814	215.152097	513.189227	-87.188551	116.569847	528.744190	-41.372704	136.547092	1015.943804	-448.279055	171.807165	934.741749	-452.307867	208.026751	940.448873	-447.008067	162.620077	846.908512	-441.738542	185.578541	682.730960	-412.740133	185.117318	666.969446	-324.012744	134.109475	544.310720	-429.807201	136.190312	460.516808	-409.926271	92.326280	381.153167	-410.041979	143.118377	463.820434	-367.956436	50.455024	254.268240	-396.930637	-19.779698	227.097761	-363.377261	262.724903	157.658147	-364.258733	181.378459	144.905255	-428.715101	-263.611759	973.254629	-238.933195	-83.153984	79.146774	-437.927781	-83.251819	79.024205	-40.317428	
